<?xml version="1.0" standalone="no"?>
<!DOCTYPE svg PUBLIC "-//W3C//DTD SVG 20010904//EN"
 "http://www.w3.org/TR/2001/REC-SVG-20010904/DTD/svg10.dtd">
<svg version="1.0" xmlns="http://www.w3.org/2000/svg"
 width="347.000000pt" height="347.000000pt" viewBox="0 0 347.000000 347.000000"
 preserveAspectRatio="xMidYMid meet">
<metadata>
Created by potrace 1.11, written by Peter Selinger 2001-2013
</metadata>
<g transform="translate(0.000000,347.000000) scale(0.100000,-0.100000)"
fill="#000000" stroke="none">
<path d="M1637 3464 c-1 -1 -31 -5 -67 -8 -36 -3 -76 -8 -90 -10 -14 -2 -45
-7 -69 -10 -24 -4 -51 -11 -61 -16 -9 -5 -20 -7 -23 -3 -4 3 -13 1 -20 -5 -8
-7 -16 -9 -20 -6 -3 3 -26 -3 -50 -14 -25 -11 -48 -18 -51 -15 -3 3 -12 1 -19
-5 -8 -7 -17 -9 -20 -5 -4 3 -7 1 -7 -5 0 -7 -3 -11 -7 -10 -5 2 -28 -6 -53
-16 -25 -11 -47 -20 -50 -21 -16 -3 -126 -61 -132 -70 -4 -5 -8 -6 -8 -2 0 4
-6 3 -12 -3 -7 -5 -48 -33 -91 -60 -172 -111 -262 -194 -450 -420 -33 -40
-109 -170 -157 -267 -63 -129 -61 -124 -99 -243 -29 -91 -33 -109 -47 -190 -3
-19 -7 -37 -9 -40 -18 -30 -26 -366 -11 -485 53 -430 248 -804 572 -1095 220
-199 541 -355 832 -404 128 -22 172 -26 311 -26 151 0 221 6 341 31 202 41
430 132 589 236 136 90 315 250 421 378 74 90 198 303 251 430 51 124 94 291
116 450 11 84 7 400 -6 460 -6 28 -13 61 -16 75 -4 25 -8 45 -21 105 -3 17
-11 36 -16 43 -6 6 -8 12 -5 12 10 0 -33 121 -68 190 -7 14 -18 42 -24 63 -7
20 -17 37 -22 37 -5 0 -8 3 -7 8 2 6 -8 25 -40 77 -7 11 -15 28 -18 38 -4 9
-10 17 -15 17 -5 0 -9 7 -9 15 0 8 -4 15 -10 15 -5 0 -10 6 -10 14 0 8 -3 16
-8 18 -4 2 -25 27 -47 57 -41 57 -43 59 -146 167 -63 65 -106 104 -174 156
-16 12 -32 25 -35 28 -13 15 -203 129 -260 156 -62 30 -119 56 -130 59 -3 1
-18 7 -33 13 -16 7 -34 12 -41 12 -6 0 -17 5 -24 12 -7 7 -12 9 -12 5 0 -3
-12 -2 -27 4 -16 6 -35 12 -43 15 -8 2 -33 8 -55 14 -22 5 -60 12 -84 15 -25
4 -48 8 -51 10 -16 10 -344 27 -353 19z"/>
</g>
</svg>
